<?xml version="1.0" encoding="UTF-8" standalone="no"?>
<!-- Created with Inkscape (http://www.inkscape.org/) -->

<svg
   width="600mm"
   height="600mm"
   viewBox="0 0 600 600"
   version="1.1"
   id="svg185"
   inkscape:version="1.4.3 (0d15f75042, 2025-12-25)"
   sodipodi:docname="icon.svg"
   inkscape:export-filename="BaseLogo.png"
   inkscape:export-xdpi="42.333332"
   inkscape:export-ydpi="42.333332"
   xmlns:inkscape="http://www.inkscape.org/namespaces/inkscape"
   xmlns:sodipodi="http://sodipodi.sourceforge.net/DTD/sodipodi-0.dtd"
   xmlns="http://www.w3.org/2000/svg"
   xmlns:svg="http://www.w3.org/2000/svg">
  <sodipodi:namedview
     id="namedview187"
     pagecolor="#ffffff"
     bordercolor="#000000"
     borderopacity="0.25"
     inkscape:showpageshadow="2"
     inkscape:pageopacity="0.0"
     inkscape:pagecheckerboard="0"
     inkscape:deskcolor="#d1d1d1"
     inkscape:document-units="mm"
     showgrid="false"
     inkscape:zoom="0.27086912"
     inkscape:cx="970.94863"
     inkscape:cy="1126.0051"
     inkscape:window-width="1920"
     inkscape:window-height="1080"
     inkscape:window-x="0"
     inkscape:window-y="0"
     inkscape:window-maximized="1"
     inkscape:current-layer="layer1"
     showguides="true"
     inkscape:export-bgcolor="#ffffff00" />
  <defs
     id="defs182" />
  <g
     inkscape:label="Layer 1"
     inkscape:groupmode="layer"
     id="layer1">
    <rect
       style="fill:#39353c;fill-opacity:1;fill-rule:evenodd;stroke-width:1.2904;stroke-linecap:round;stroke-linejoin:round;stroke-miterlimit:0;paint-order:markers stroke fill"
       id="rect358"
       width="455.43448"
       height="455.43448"
       x="72.282761"
       y="72.282761"
       ry="101.37907"
       rx="101.37907"
       inkscape:label="Background" />
    <g
       id="g10537"
       style="display:inline"
       transform="matrix(0.75905748,0,0,0.75905748,72.282757,72.282757)">
      <rect
         style="fill:#8b7a9b;fill-opacity:1;fill-rule:evenodd;stroke-width:1.68444;stroke-linecap:round;stroke-linejoin:round;stroke-miterlimit:0;paint-order:markers stroke fill"
         id="rect2603"
         width="452.39612"
         height="268.27219"
         x="45.399605"
         y="83.600906"
         rx="47.386887"
         ry="48.266621"
         inkscape:label="CameraBody" />
      <rect
         style="fill:#c1bcc5;fill-opacity:1;fill-rule:evenodd;stroke-width:1.48177;stroke-linecap:round;stroke-linejoin:round;stroke-miterlimit:0;paint-order:markers stroke fill"
         id="rect10415"
         width="295.59634"
         height="19.312464"
         x="77.65696"
         y="303.73462"
         rx="5.1857667"
         ry="8.9655342" />
      <rect
         style="fill:#c1bcc5;fill-opacity:1;fill-rule:evenodd;stroke-width:1.32397;stroke-linecap:round;stroke-linejoin:round;stroke-miterlimit:0;paint-order:markers stroke fill"
         id="rect10415-3"
         width="235.99023"
         height="19.312464"
         x="77.65696"
         y="139.90247"
         rx="4.1400723"
         ry="8.9655342" />
      <rect
         style="fill:#c1bcc5;fill-opacity:1;fill-rule:evenodd;stroke-width:1.61304;stroke-linecap:round;stroke-linejoin:round;stroke-miterlimit:0;paint-order:markers stroke fill"
         id="rect10415-6"
         width="350.29248"
         height="19.312464"
         x="77.65696"
         y="171.1095"
         rx="6.1453233"
         ry="8.9655342" />
      <rect
         style="fill:#c1bcc5;fill-opacity:1;fill-rule:evenodd;stroke-width:1.7;stroke-linecap:round;stroke-linejoin:round;stroke-miterlimit:0;paint-order:markers stroke fill"
         id="rect10415-7"
         width="389.07791"
         height="19.312464"
         x="77.65696"
         y="201.86407"
         rx="6.8257518"
         ry="8.9655342" />
      <rect
         style="fill:#c1bcc5;fill-opacity:1;fill-rule:evenodd;stroke-width:1.63922;stroke-linecap:round;stroke-linejoin:round;stroke-miterlimit:0;paint-order:markers stroke fill"
         id="rect10415-5"
         width="361.75446"
         height="19.312464"
         x="77.65696"
         y="237.39146"
         rx="6.3464055"
         ry="8.9655342" />
      <rect
         style="fill:#c1bcc5;fill-opacity:1;fill-rule:evenodd;stroke-width:1.55759;stroke-linecap:round;stroke-linejoin:round;stroke-miterlimit:0;paint-order:markers stroke fill"
         id="rect5577"
         width="326.62036"
         height="19.312464"
         x="77.65696"
         y="107.87185"
         rx="5.7300334"
         ry="8.9655342" />
      <rect
         style="fill:#c1bcc5;fill-opacity:1;fill-rule:evenodd;stroke-width:1.7;stroke-linecap:round;stroke-linejoin:round;stroke-miterlimit:0;paint-order:markers stroke fill"
         id="rect10415-35"
         width="389.07791"
         height="19.312464"
         x="77.65696"
         y="269.54745"
         rx="6.8257518"
         ry="8.9655342" />
      <path
         style="font-size:141.111px;font-family:'URW Gothic';-inkscape-font-specification:'URW Gothic';fill:#c1bcc5;fill-rule:evenodd;stroke-width:1.7;stroke-linecap:round;stroke-linejoin:round;stroke-miterlimit:0;paint-order:markers stroke fill"
         d="M 70.553629,499.15414 H 80.995842 V 404.32756 H 104.8436 v -9.45444 H 46.705871 v 9.45444 H 70.553629 Z M 185.70027,464.01751 c 0,-10.58333 -1.41111,-17.07443 -5.2211,-23.84776 -6.91444,-12.41777 -20.31999,-20.03776 -35.13664,-20.03776 -22.43665,0 -39.93441,17.63887 -39.93441,40.07552 0,22.85998 17.92109,40.78108 40.78108,40.78108 16.7922,0 31.89108,-10.86555 37.53552,-27.23442 h -10.86555 c -4.37444,10.58332 -15.23998,17.63887 -26.9522,17.63887 -15.94554,0 -29.20997,-12.13555 -30.05664,-27.37553 z m -69.56772,-9.45444 c 2.82222,-14.81665 14.53444,-24.83553 29.20998,-24.83553 14.95776,0 26.24664,9.31332 29.91553,24.83553 z m 84.66642,44.59107 h 10.44222 V 394.87312 H 200.79897 Z M 306.3501,464.01751 c 0,-10.58333 -1.41111,-17.07443 -5.2211,-23.84776 -6.91444,-12.41777 -20.31999,-20.03776 -35.13664,-20.03776 -22.43665,0 -39.93441,17.63887 -39.93441,40.07552 0,22.85998 17.92109,40.78108 40.78108,40.78108 16.7922,0 31.89108,-10.86555 37.53552,-27.23442 H 293.509 c -4.37444,10.58332 -15.23998,17.63887 -26.9522,17.63887 -15.94554,0 -29.20997,-12.13555 -30.05664,-27.37553 z m -69.56772,-9.45444 c 2.82222,-14.81665 14.53444,-24.83553 29.20998,-24.83553 14.95776,0 26.24664,9.31332 29.91553,24.83553 z m 85.79543,44.59107 h 28.08109 c 15.66332,0 26.66998,-2.39888 35.84219,-7.7611 15.80443,-9.31333 24.12998,-24.55331 24.12998,-44.02663 0,-19.61443 -8.18443,-35.13664 -23.56553,-44.30885 -10.01888,-5.92666 -21.02554,-8.18444 -39.93441,-8.18444 h -24.55332 z m 10.44222,-9.45443 v -85.37215 h 14.53443 c 15.66332,0 25.96442,2.11666 33.58442,6.63221 11.99443,7.33778 18.90887,20.4611 18.90887,35.98331 0,13.68776 -5.36222,25.6822 -14.95777,33.4433 -8.32555,6.63222 -19.04998,9.31333 -37.53552,9.31333 z m 130.95082,-69.56772 c -23.00109,0 -40.49885,17.35665 -40.49885,39.93441 0,23.84776 17.35665,40.92219 41.34552,40.92219 22.57776,0 39.22885,-17.07443 39.22885,-40.21664 0,-23.56553 -16.79221,-40.63996 -40.07552,-40.63996 z m 0,9.59555 c 17.07443,0 29.4922,13.12332 29.4922,31.18553 0,17.77998 -12.13555,30.47997 -28.92776,30.47997 -17.77998,0 -30.47997,-12.8411 -30.47997,-31.04442 0,-17.49776 12.8411,-30.62108 29.91553,-30.62108 z m 61.52441,69.4266 h 10.44222 v -67.73327 h 17.35665 v -9.45444 h -17.35665 v -27.09331 h -10.44222 v 27.09331 h -16.65109 v 9.45444 h 16.65109 z"
         id="text10640"
         aria-label="TeleDot" />
    </g>
    <path
       style="fill:#8b7a9b;fill-opacity:1;fill-rule:evenodd;stroke-width:1.473;stroke-linecap:round;stroke-linejoin:round;stroke-miterlimit:0;paint-order:markers stroke fill"
       d="m 443.71827,186.89172 61.49006,-46.25956 v 197.77117 l -62.29961,-46.86862 z"
       id="path5467"
       inkscape:label="CameraLens" />
  </g>
</svg>
